<?xml version="1.0" encoding="utf-8"?>
<!-- Svg Vector Icons : http://www.onlinewebfonts.com/icon -->
<svg version="1.1" xmlns="http://www.w3.org/2000/svg" xmlns:xlink="http://www.w3.org/1999/xlink" x="0px" y="0px" viewBox="0 0 256 256" enable-background="new 0 0 256 256" xml:space="preserve" xmlns:svg="http://www.w3.org/2000/svg">
<metadata> Svg Vector Icons : http://www.onlinewebfonts.com/icon </metadata>
<g><g><g><path fill="#000000" d="M106,5.8C88.8,9.1,76.1,20.4,72.1,36c-1.2,4.7-1,6.3,1.1,7.3c2.7,1.3,3.7,0.5,6.6-5.4c2.2-4.5,3.1-5.7,6.8-9.4c4.8-4.8,8.9-7.2,15-8.9c5.5-1.5,15.8-1.5,23.5,0c8.2,1.6,19.7,5.6,31.1,10.7c17,7.7,25.5,10,37.2,9.9c5.3,0,7.7-0.2,10.7-1.1c10.5-2.8,18.6-9,22.6-17.4c1.9-3.9,2-5.7,0.2-7.2c-0.7-0.6-1.7-1.1-2.2-1.1c-0.5,0-2.9,1.9-5.5,4.6c-6.8,6.9-11.9,9-22,9c-9.1,0-18.5-2.6-31.8-8.7c-12.7-5.8-22.5-9.3-32.6-11.4C125.1,5.1,111.9,4.7,106,5.8z"/><path fill="#000000" d="M57.4,56.4c-0.5,0.5-0.4,53,0.1,53.2c0.2,0-7.3,6.3-16.9,13.7c-25.8,20.3-24.4,18.8-24.4,24.2c0,6.1,5.9,10.8,11.8,9.5c2.4-0.5-1.5,2.4,52.3-39.9C103.7,98.7,123.8,83,125,82.4c3-1.7,7.8-1.7,10.8,0C137,83,158.7,100,184,119.9c25.4,20,46.7,36.5,47.4,36.8c0.7,0.2,2.6,0.4,4.3,0.3c2.5-0.1,3.4-0.4,4.9-1.7c5-4,5.6-10.5,1.3-14.7c-1.9-1.8-100.5-79.7-104.7-82.5c-1.7-1.2-2.9-1.7-5.2-1.8c-5.4-0.5-5.8-0.2-23.9,14C99,77.4,91.4,83.3,91.3,83.3c-0.1,0-0.2-6.1-0.2-13.6V56.1H74.4C65.2,56.1,57.5,56.2,57.4,56.4z"/><path fill="#000000" d="M88.6,127.6l-41.5,32.7l-0.2,33.2l-0.2,33.2l-5.1,1.1c-9.7,2.2-23.8,6.8-28,9.2c-6.1,3.4-3.8,12.9,3.1,13c1,0,4-0.8,7-2c10.4-4.1,23.9-7.4,37.5-9.2c8.8-1.2,30.1-1.2,38.6,0c8.5,1.2,16.9,3,24.5,5.2c16.1,4.8,25.3,6.3,40.4,6.7c15.5,0.4,26.5-0.7,41.3-4.3c11.6-2.8,29.8-9.7,36.1-13.6c2.6-1.7,4-3.9,4-6.4c0-3.5-2.6-6.4-6.2-6.9c-1.6-0.2-2.8,0.2-7.6,2.5c-6,2.9-16.3,7-17.5,7c-0.6,0-0.7-4.6-0.7-34.4l0-34.3l-41.3-32.5C149.8,109.8,131,95.1,130.6,95C130.3,95,111.4,109.6,88.6,127.6z M125.5,164.4v11.7h-11.7h-11.7v-11.7v-11.7h11.7h11.7V164.4z M158.6,164.4v11.7h-11.7h-11.7v-11.7v-11.7h11.7h11.7V164.4z M125.5,197.4v11.7h-11.7h-11.7v-11.7v-11.7h11.7h11.7V197.4z M158.6,197.4v11.7h-11.7h-11.7v-11.7v-11.7h11.7h11.7V197.4z"/></g></g></g>
</svg>